<?xml version="1.0" encoding="UTF-8"?>
<svg version="1.1" xmlns="http://www.w3.org/2000/svg" width="64" height="64">
<path d="M 39 9 L 29 9 L 28 10 L 25 10 L 34 10 L 38 12 L 37 13 L 24 13 L 23 14 L 21 14 L 13 18 L 6 26 L 4 34 L 8 27 L 12 23 L 14 24 L 11 27 L 11 28 L 8 32 L 8 35 L 7 36 L 7 41 L 8 42 L 8 44 L 10 48 L 16 54 L 22 57 L 25 57 L 26 58 L 34 58 L 35 57 L 41 56 L 42 55 L 41 56 L 34 56 L 33 55 L 29 55 L 23 52 L 21 50 L 22 49 L 26 50 L 27 51 L 38 51 L 39 50 L 42 50 L 51 45 L 55 41 L 55 40 L 58 36 L 58 34 L 59 33 L 59 26 L 58 24 L 58 28 L 54 35 L 52 36 L 51 35 L 54 30 L 54 21 L 52 17 L 48 13 L 42 10 L 40 10 Z" fill="#68C0F5" />
</svg>
